<?xml version="1.0" encoding="utf-8"?>
<!-- Generator: Adobe Illustrator 16.0.0, SVG Export Plug-In . SVG Version: 6.00 Build 0)  -->
<!DOCTYPE svg PUBLIC "-//W3C//DTD SVG 1.1//EN" "http://www.w3.org/Graphics/SVG/1.1/DTD/svg11.dtd">
<svg version="1.1" id="Capa_1" xmlns="http://www.w3.org/2000/svg" xmlns:xlink="http://www.w3.org/1999/xlink" x="0px" y="0px"
	 width="188px" height="80px" viewBox="0 0 188 80" enable-background="new 0 0 188 80" xml:space="preserve">
<linearGradient id="SVGID_1_" gradientUnits="userSpaceOnUse" x1="20.9702" y1="38.9248" x2="95.5981" y2="38.9248">
	<stop  offset="0" style="stop-color:#2D73B4"/>
	<stop  offset="0.2364" style="stop-color:#2D73B4"/>
	<stop  offset="0.6303" style="stop-color:#DD011B"/>
	<stop  offset="0.6331" style="stop-color:#DE071B"/>
	<stop  offset="0.6561" style="stop-color:#E2331D"/>
	<stop  offset="0.6783" style="stop-color:#E5561F"/>
	<stop  offset="0.6991" style="stop-color:#E77020"/>
	<stop  offset="0.718" style="stop-color:#E97F21"/>
	<stop  offset="0.7333" style="stop-color:#E98421"/>
	<stop  offset="0.8848" style="stop-color:#FFEC18"/>
</linearGradient>
<path fill="url(#SVGID_1_)" d="M93.446,14.218c-2.331-3.974-6.342-6.645-11.452-8.027l3.185,9.554L74.25,16.166
	c3.318,1.037,5.927,2.878,7.486,5.536c5.313,9.054-3.566,24.131-19.831,33.674c-10.63,6.237-21.783,8.565-29.72,6.904
	c-3.73,0.396-8.586,0.834-11.215,0.766l2.245,7.666c11.141,2.733,27.217-0.454,42.515-9.429
	C88.463,47.943,100.872,26.872,93.446,14.218z"/>
<linearGradient id="SVGID_2_" gradientUnits="userSpaceOnUse" x1="11.2241" y1="37.8945" x2="87.4292" y2="37.8945">
	<stop  offset="0.0824" style="stop-color:#FFEC18"/>
	<stop  offset="0.1111" style="stop-color:#FEE218"/>
	<stop  offset="0.1597" style="stop-color:#FAC818"/>
	<stop  offset="0.2222" style="stop-color:#F49D19"/>
	<stop  offset="0.296" style="stop-color:#EB611A"/>
	<stop  offset="0.3786" style="stop-color:#E0161B"/>
	<stop  offset="0.4006" style="stop-color:#DD011B"/>
	<stop  offset="0.4641" style="stop-color:#C21232"/>
	<stop  offset="0.6256" style="stop-color:#833C6A"/>
	<stop  offset="0.7621" style="stop-color:#545A92"/>
	<stop  offset="0.8667" style="stop-color:#386CAB"/>
	<stop  offset="0.9268" style="stop-color:#2D73B4"/>
</linearGradient>
<path fill="url(#SVGID_2_)" d="M32.186,62.279c-4.206-0.881-7.509-2.882-9.35-6.019c-5.312-9.053,3.566-24.13,19.831-33.674
	c11.492-6.742,23.596-8.918,31.583-6.421l10.929-0.421l-3.185-9.554c-11.158-3.019-27.558,0.115-43.151,9.264
	C16.11,28.794,3.701,49.865,11.125,62.519c2.428,4.139,6.677,6.863,12.09,8.192l-2.245-7.666
	C23.6,63.113,28.456,62.676,32.186,62.279z"/>
<g>
	<g>
		<path d="M43.25,40.794h0.073l0.551-1.468c0.331-0.808,1.138-3.708,3.819-3.708c1.579,0,2.607,0.587,3.635,1.395l-2.276,5.361
			c-0.478-0.147-0.918-0.367-2.093-0.367c-1.689,0-3.708,0.808-3.708,4.553v7.857h-7.343V36.058h7.343V40.794z"/>
		<path d="M59.516,46.119c0,3.011,2.203,4.369,4.296,4.369c1.946,0,3.635-0.624,4.811-1.321l2.019,3.745
			c-3.451,1.653-6.536,1.946-8.885,1.946c-5.288,0-9.951-4.59-9.951-9.987c0-4.553,3.341-9.252,10.318-9.252
			c5.912,0,9.143,4.075,8.519,10.501H59.516z M64.473,42.998c0.184-3.011-0.807-4.333-2.533-4.333c-1.542,0-2.571,1.395-2.351,4.333
			H64.473z"/>
		<path d="M87.091,31.872c-0.881-0.331-1.909-0.44-2.57-0.44c-1.139,0-2.24,0.917-2.24,2.239v2.387h4.406v3.378h-4.406v14.981
			h-7.344V39.436H72v-3.378h2.938v-1.835c0-4.664,4.039-6.793,7.968-6.793c1.212,0,3.121,0.11,5.177,0.845L87.091,31.872z"/>
		<path d="M89.331,31.027c0-1.982,1.91-3.782,3.855-3.782c1.982,0,3.929,1.69,3.929,3.782c0,2.203-1.947,3.855-3.965,3.855
			C91.24,34.883,89.331,33.23,89.331,31.027z M96.895,36.058v18.359h-7.344V36.058H96.895z"/>
		<path d="M101.3,54.417V27.429h7.344v26.988H101.3z"/>
		<path d="M113.05,54.417V27.429h7.343v26.988H113.05z"/>
		<path d="M123.992,50.892l3.525-3.231c4.59-4.149,8.556-8.555,8.556-11.97c0-1.211-1.102-2.644-2.864-2.644
			c-1.8,0-3.819,1.064-5.838,2.46l-2.497-3.672c1.91-1.726,5.214-3.562,10.098-3.562c4.479,0,9.362,1.909,9.362,6.683
			c0,2.864-1.101,5.141-6.205,10.428l-3.562,3.745h10.024v5.288h-20.562L123.992,50.892z"/>
		<path d="M165.188,44.466h3.121v4.223h-3.121v5.728h-7.601v-5.728h-11.86v-3.305l13.183-16.67h6.278V44.466z M157.588,44.466
			v-8.409h-0.073l-6.205,8.409H157.588z"/>
	</g>
	<g>
		<path d="M80.771,66.477l0.921,0.233c-0.193,0.757-0.541,1.334-1.043,1.731c-0.502,0.397-1.116,0.597-1.841,0.597
			c-0.751,0-1.361-0.152-1.832-0.459c-0.47-0.305-0.828-0.748-1.074-1.327c-0.246-0.58-0.368-1.202-0.368-1.867
			c0-0.727,0.139-1.358,0.416-1.898c0.277-0.54,0.671-0.951,1.183-1.231s1.075-0.419,1.689-0.419c0.697,0,1.283,0.177,1.758,0.531
			c0.475,0.354,0.806,0.854,0.993,1.497l-0.908,0.213c-0.161-0.507-0.396-0.876-0.703-1.106c-0.307-0.231-0.693-0.347-1.159-0.347
			c-0.535,0-0.983,0.128-1.342,0.385c-0.36,0.256-0.613,0.601-0.758,1.033c-0.146,0.432-0.219,0.878-0.219,1.338
			c0,0.593,0.086,1.109,0.259,1.551s0.441,0.772,0.805,0.99c0.364,0.219,0.759,0.329,1.183,0.329c0.516,0,0.954-0.15,1.312-0.448
			C80.402,67.505,80.645,67.062,80.771,66.477z"/>
		<path d="M82.401,66.396c0-0.935,0.26-1.626,0.779-2.077c0.434-0.373,0.963-0.561,1.586-0.561c0.694,0,1.261,0.228,1.701,0.682
			c0.44,0.455,0.661,1.083,0.661,1.885c0,0.649-0.098,1.16-0.292,1.531c-0.195,0.372-0.478,0.662-0.85,0.867
			c-0.373,0.206-0.779,0.31-1.219,0.31c-0.706,0-1.277-0.227-1.713-0.68C82.619,67.9,82.401,67.248,82.401,66.396z M83.28,66.396
			c0,0.646,0.141,1.13,0.423,1.451c0.282,0.321,0.637,0.482,1.064,0.482c0.425,0,0.778-0.162,1.06-0.484
			c0.282-0.324,0.423-0.816,0.423-1.478c0-0.624-0.142-1.098-0.426-1.418c-0.283-0.322-0.635-0.483-1.057-0.483
			c-0.427,0-0.782,0.16-1.064,0.48C83.421,65.267,83.28,65.75,83.28,66.396z"/>
		<path d="M88.131,68.919v-5.045h0.765v0.708c0.158-0.247,0.369-0.446,0.631-0.598c0.263-0.149,0.562-0.226,0.898-0.226
			c0.374,0,0.68,0.078,0.919,0.233s0.408,0.372,0.506,0.651c0.399-0.589,0.918-0.885,1.559-0.885c0.5,0,0.885,0.139,1.154,0.416
			c0.269,0.277,0.404,0.704,0.404,1.28v3.464h-0.851V65.74c0-0.342-0.027-0.588-0.083-0.738c-0.055-0.15-0.156-0.271-0.301-0.363
			c-0.146-0.092-0.317-0.139-0.513-0.139c-0.355,0-0.649,0.118-0.884,0.354s-0.352,0.614-0.352,1.133v2.932h-0.855v-3.278
			c0-0.38-0.07-0.665-0.209-0.854c-0.139-0.19-0.367-0.286-0.684-0.286c-0.241,0-0.463,0.063-0.667,0.19
			c-0.205,0.127-0.352,0.312-0.444,0.556c-0.092,0.244-0.138,0.596-0.138,1.055v2.618H88.131z"/>
		<path d="M96.236,70.853v-6.979h0.779v0.654c0.185-0.256,0.392-0.448,0.623-0.577c0.231-0.128,0.512-0.192,0.841-0.192
			c0.431,0,0.811,0.111,1.14,0.334c0.33,0.221,0.579,0.533,0.746,0.938c0.168,0.403,0.252,0.847,0.252,1.328
			c0,0.516-0.093,0.98-0.278,1.395c-0.185,0.413-0.455,0.73-0.808,0.95c-0.354,0.22-0.725,0.33-1.115,0.33
			c-0.285,0-0.541-0.061-0.767-0.181s-0.413-0.272-0.558-0.456v2.456H96.236z M97.011,66.425c0,0.649,0.131,1.129,0.394,1.439
			c0.263,0.311,0.582,0.466,0.955,0.466c0.38,0,0.706-0.161,0.976-0.482c0.271-0.321,0.407-0.819,0.407-1.494
			c0-0.643-0.132-1.124-0.397-1.444c-0.265-0.32-0.581-0.479-0.948-0.479c-0.365,0-0.687,0.17-0.967,0.51
			C97.15,65.28,97.011,65.775,97.011,66.425z"/>
		<path d="M105.101,67.294l0.884,0.109c-0.139,0.516-0.397,0.917-0.774,1.202s-0.858,0.428-1.445,0.428
			c-0.738,0-1.323-0.229-1.755-0.683c-0.433-0.454-0.649-1.091-0.649-1.912c0-0.848,0.218-1.508,0.656-1.976
			c0.437-0.469,1.003-0.704,1.701-0.704c0.675,0,1.226,0.23,1.654,0.689c0.427,0.459,0.641,1.105,0.641,1.938
			c0,0.05-0.002,0.127-0.005,0.229h-3.763c0.032,0.554,0.188,0.979,0.47,1.272c0.282,0.295,0.633,0.442,1.055,0.442
			c0.313,0,0.582-0.082,0.803-0.247S104.971,67.655,105.101,67.294z M102.294,65.911h2.817c-0.039-0.424-0.146-0.742-0.323-0.954
			c-0.272-0.33-0.626-0.494-1.06-0.494c-0.393,0-0.723,0.131-0.99,0.395C102.47,65.12,102.322,65.472,102.294,65.911z"/>
		<path d="M108.927,68.154l0.123,0.756c-0.241,0.05-0.457,0.075-0.646,0.075c-0.311,0-0.551-0.05-0.722-0.147
			c-0.171-0.098-0.292-0.227-0.362-0.387c-0.069-0.16-0.104-0.497-0.104-1.009v-2.904h-0.627v-0.664h0.627v-1.25l0.85-0.513v1.763
			h0.86v0.664h-0.86v2.95c0,0.244,0.015,0.4,0.045,0.471c0.03,0.07,0.079,0.126,0.147,0.167c0.068,0.04,0.166,0.062,0.292,0.062
			C108.646,68.188,108.771,68.177,108.927,68.154z"/>
		<path d="M113.216,67.294l0.884,0.109c-0.139,0.516-0.397,0.917-0.774,1.202c-0.377,0.285-0.858,0.428-1.445,0.428
			c-0.738,0-1.323-0.229-1.755-0.683c-0.432-0.454-0.648-1.091-0.648-1.912c0-0.848,0.218-1.508,0.655-1.976
			c0.438-0.469,1.004-0.704,1.701-0.704c0.674,0,1.226,0.23,1.654,0.689c0.427,0.459,0.641,1.105,0.641,1.938
			c0,0.05-0.002,0.127-0.005,0.229h-3.763c0.032,0.554,0.188,0.979,0.47,1.272c0.282,0.295,0.633,0.442,1.055,0.442
			c0.313,0,0.582-0.082,0.802-0.247C112.911,67.918,113.086,67.655,113.216,67.294z M110.409,65.911h2.817
			c-0.039-0.424-0.146-0.742-0.323-0.954c-0.273-0.33-0.626-0.494-1.06-0.494c-0.393,0-0.723,0.131-0.99,0.395
			C110.585,65.12,110.437,65.472,110.409,65.911z"/>
		<path d="M115.174,68.919v-5.045h0.77v0.717c0.371-0.555,0.906-0.832,1.606-0.832c0.303,0,0.583,0.056,0.838,0.165
			c0.255,0.109,0.446,0.252,0.573,0.43c0.126,0.177,0.215,0.388,0.267,0.632c0.031,0.157,0.047,0.435,0.047,0.832v3.102h-0.856
			V65.85c0-0.348-0.033-0.609-0.099-0.781c-0.067-0.173-0.185-0.311-0.354-0.413s-0.368-0.155-0.597-0.155
			c-0.364,0-0.678,0.116-0.943,0.347c-0.265,0.232-0.397,0.67-0.397,1.316v2.756H115.174z"/>
		<path d="M123.878,67.071l0.84,0.108c-0.092,0.58-0.327,1.034-0.705,1.361c-0.379,0.328-0.843,0.492-1.395,0.492
			c-0.69,0-1.246-0.227-1.666-0.677c-0.419-0.451-0.629-1.099-0.629-1.941c0-0.544,0.09-1.021,0.271-1.43
			c0.181-0.408,0.456-0.715,0.825-0.92c0.369-0.204,0.771-0.307,1.205-0.307c0.548,0,0.996,0.139,1.344,0.416
			c0.348,0.277,0.572,0.671,0.67,1.181l-0.832,0.128c-0.08-0.339-0.22-0.593-0.42-0.765c-0.201-0.171-0.444-0.256-0.729-0.256
			c-0.431,0-0.78,0.154-1.05,0.463c-0.269,0.309-0.404,0.798-0.404,1.466c0,0.678,0.13,1.171,0.39,1.478
			c0.26,0.308,0.599,0.461,1.017,0.461c0.336,0,0.616-0.104,0.841-0.309C123.675,67.815,123.818,67.499,123.878,67.071z"/>
		<path d="M128.904,67.294l0.884,0.109c-0.139,0.516-0.397,0.917-0.774,1.202c-0.377,0.285-0.858,0.428-1.445,0.428
			c-0.738,0-1.323-0.229-1.755-0.683c-0.433-0.454-0.649-1.091-0.649-1.912c0-0.848,0.218-1.508,0.655-1.976
			c0.438-0.469,1.004-0.704,1.701-0.704c0.675,0,1.226,0.23,1.654,0.689c0.427,0.459,0.641,1.105,0.641,1.938
			c0,0.05-0.002,0.127-0.005,0.229h-3.763c0.032,0.554,0.188,0.979,0.47,1.272c0.282,0.295,0.633,0.442,1.055,0.442
			c0.313,0,0.582-0.082,0.803-0.247C128.599,67.918,128.774,67.655,128.904,67.294z M126.097,65.911h2.817
			c-0.038-0.424-0.146-0.742-0.323-0.954c-0.272-0.33-0.625-0.494-1.06-0.494c-0.393,0-0.723,0.131-0.99,0.395
			C126.273,65.12,126.125,65.472,126.097,65.911z"/>
		<path d="M133.57,62.938v-0.983h0.855v0.983H133.57z M133.57,68.919v-5.045h0.855v5.045H133.57z"/>
		<path d="M135.728,68.919v-5.045h0.77v0.717c0.37-0.555,0.906-0.832,1.606-0.832c0.304,0,0.583,0.056,0.838,0.165
			c0.255,0.109,0.446,0.252,0.573,0.43c0.126,0.177,0.215,0.388,0.266,0.632c0.031,0.157,0.047,0.435,0.047,0.832v3.102h-0.855
			V65.85c0-0.348-0.033-0.609-0.099-0.781c-0.067-0.173-0.185-0.311-0.354-0.413c-0.17-0.103-0.369-0.155-0.597-0.155
			c-0.364,0-0.678,0.116-0.943,0.347c-0.264,0.232-0.397,0.67-0.397,1.316v2.756H135.728z"/>
		<path d="M148.921,66.477l0.923,0.233c-0.193,0.757-0.542,1.334-1.044,1.731c-0.501,0.397-1.115,0.597-1.841,0.597
			c-0.75,0-1.361-0.152-1.831-0.459c-0.471-0.305-0.828-0.748-1.073-1.327c-0.246-0.58-0.369-1.202-0.369-1.867
			c0-0.727,0.139-1.358,0.416-1.898c0.276-0.54,0.671-0.951,1.183-1.231s1.074-0.419,1.689-0.419c0.696,0,1.282,0.177,1.758,0.531
			c0.475,0.354,0.806,0.854,0.992,1.497l-0.906,0.213c-0.162-0.507-0.396-0.876-0.703-1.106c-0.308-0.231-0.694-0.347-1.16-0.347
			c-0.534,0-0.982,0.128-1.342,0.385c-0.359,0.256-0.612,0.601-0.758,1.033c-0.146,0.432-0.218,0.878-0.218,1.338
			c0,0.593,0.085,1.109,0.258,1.551s0.441,0.772,0.806,0.99c0.364,0.219,0.758,0.329,1.183,0.329c0.517,0,0.954-0.15,1.312-0.448
			C148.552,67.505,148.795,67.062,148.921,66.477z"/>
		<path d="M150.551,66.396c0-0.935,0.259-1.626,0.778-2.077c0.435-0.373,0.963-0.561,1.588-0.561c0.693,0,1.261,0.228,1.7,0.682
			c0.44,0.455,0.661,1.083,0.661,1.885c0,0.649-0.098,1.16-0.292,1.531c-0.195,0.372-0.479,0.662-0.852,0.867
			c-0.372,0.206-0.778,0.31-1.218,0.31c-0.706,0-1.278-0.227-1.714-0.68S150.551,67.248,150.551,66.396z M151.43,66.396
			c0,0.646,0.141,1.13,0.423,1.451c0.281,0.321,0.637,0.482,1.064,0.482c0.424,0,0.776-0.162,1.059-0.484
			c0.282-0.324,0.424-0.816,0.424-1.478c0-0.624-0.143-1.098-0.426-1.418c-0.282-0.322-0.636-0.483-1.057-0.483
			c-0.428,0-0.783,0.16-1.064,0.48C151.57,65.267,151.43,65.75,151.43,66.396z"/>
		<path d="M156.262,68.919v-6.965h0.854v6.965H156.262z"/>
		<path d="M158.125,66.396c0-0.935,0.259-1.626,0.778-2.077c0.434-0.373,0.963-0.561,1.587-0.561c0.693,0,1.261,0.228,1.701,0.682
			c0.44,0.455,0.66,1.083,0.66,1.885c0,0.649-0.098,1.16-0.292,1.531c-0.195,0.372-0.479,0.662-0.851,0.867
			c-0.373,0.206-0.779,0.31-1.219,0.31c-0.706,0-1.277-0.227-1.713-0.68C158.343,67.9,158.125,67.248,158.125,66.396z
			 M159.003,66.396c0,0.646,0.141,1.13,0.423,1.451s0.638,0.482,1.064,0.482c0.425,0,0.777-0.162,1.06-0.484
			c0.281-0.324,0.423-0.816,0.423-1.478c0-0.624-0.142-1.098-0.426-1.418c-0.282-0.322-0.636-0.483-1.057-0.483
			c-0.427,0-0.782,0.16-1.064,0.48C159.144,65.267,159.003,65.75,159.003,66.396z"/>
		<path d="M163.845,68.919v-5.045h0.77v0.765c0.196-0.358,0.378-0.595,0.544-0.708c0.167-0.114,0.35-0.172,0.548-0.172
			c0.289,0,0.581,0.092,0.88,0.276l-0.295,0.793c-0.209-0.123-0.418-0.185-0.627-0.185c-0.187,0-0.355,0.056-0.504,0.168
			c-0.148,0.113-0.255,0.269-0.318,0.468c-0.095,0.304-0.143,0.637-0.143,0.998v2.642H163.845z"/>
	</g>
	<g>
		<path d="M174.168,26.49c0.824,0,1.614,0.206,2.372,0.618c0.757,0.413,1.353,1.003,1.785,1.772c0.433,0.77,0.648,1.575,0.648,2.417
			c0,0.836-0.212,1.634-0.636,2.394c-0.425,0.759-1.018,1.351-1.776,1.776c-0.76,0.424-1.558,0.637-2.394,0.637
			c-0.837,0-1.635-0.212-2.395-0.637c-0.759-0.425-1.352-1.017-1.775-1.776c-0.425-0.76-0.637-1.558-0.637-2.394
			c0-0.841,0.217-1.646,0.649-2.417c0.433-0.77,1.027-1.36,1.785-1.772C172.553,26.695,173.343,26.49,174.168,26.49z
			 M174.173,27.431c-0.66,0-1.294,0.166-1.9,0.496c-0.606,0.331-1.085,0.806-1.434,1.425c-0.35,0.619-0.524,1.267-0.524,1.945
			c0,0.673,0.17,1.315,0.512,1.926c0.341,0.611,0.817,1.088,1.428,1.431c0.61,0.343,1.251,0.515,1.919,0.515
			c0.675,0,1.315-0.171,1.925-0.515c0.608-0.343,1.084-0.82,1.427-1.431s0.515-1.253,0.515-1.926c0-0.678-0.174-1.326-0.523-1.945
			c-0.351-0.619-0.829-1.094-1.438-1.425C175.469,27.596,174.835,27.431,174.173,27.431z M171.996,33.869v-5.101h1.035
			c0.971,0,1.515,0.004,1.631,0.012c0.344,0.03,0.611,0.097,0.801,0.204c0.19,0.107,0.35,0.27,0.478,0.489s0.191,0.464,0.191,0.731
			c0,0.368-0.12,0.683-0.36,0.945c-0.241,0.261-0.579,0.423-1.015,0.486c0.154,0.059,0.274,0.123,0.358,0.192
			c0.084,0.069,0.198,0.2,0.346,0.392c0.036,0.051,0.162,0.258,0.375,0.622l0.604,1.029h-1.28l-0.427-0.828
			c-0.288-0.557-0.528-0.906-0.716-1.051c-0.188-0.144-0.427-0.216-0.715-0.216h-0.271v2.096H171.996z M173.031,30.97h0.422
			c0.597,0,0.968-0.023,1.113-0.069c0.144-0.046,0.258-0.126,0.342-0.242s0.125-0.246,0.125-0.392c0-0.142-0.04-0.269-0.122-0.379
			c-0.081-0.111-0.197-0.191-0.348-0.239c-0.151-0.048-0.521-0.072-1.11-0.072h-0.422V30.97z"/>
	</g>
</g>
</svg>
